:SAMPLES-PER-SECOND 30
:FULLY-SPECIFIED
:DEGREES
596
root  -43.9204 33.9187 10.3876 84.2265 89.2313 85.4528
RightUpLeg  -9.82408 -8.86965 -8.04377
RightLeg  27.5165 -1.94044 -0.864271
RightFoot  -2.96264 -0.00566885 0.357713
RightToes  -27.4551 -0.126795 -0.233895
Spine  0.429841 0.373106 0.395873
Spine1  0.771741 0.964656 1.41602
HEad  -85.6646 3.21749 9.18865
LeftShoulder1  -1.94126e-019 -3.10601e-018 -2.51263e-017
LeftArm  -22.0855 20.8134 -75.2819
LeftForeArm  37.0396 -5.25388 -0.904202
LeftHand  -0.482103 0.324099 11.0953
RightShoulder  -4.96962e-017 0 -2.36833e-017
RightArm  -2.69205 -11.5164 76.2419
RightForeArm  60.62 19.0145 1.20828
RightHand  -0.525339 3.56883 -7.05299
LeftUpLeg  -8.10859 7.15839 3.9672
LeftLeg  28.5709 10.9472 5.03093
LeftFoot  -2.15033 -0.00850189 -0.29148
LeftToes  -32.0639 2.40056e-006 -7.68412e-008
597
root  -43.834 34.0757 10.51 -74.4645 89.3831 -73.5398
RightUpLeg  -8.03981 -11.5984 -6.7759
RightLeg  23.6053 0.353834 0.123898
RightFoot  -1.22329 -0.00418032 0.198653
RightToes  -28.5825 -0.134282 -0.241994
Spine  -0.0108718 0.246774 1.07795
Spine1  -0.10264 0.705526 2.70533
HEad  -82.7461 3.97468 9.33289
LeftShoulder1  -1.94126e-019 -3.10601e-018 -2.51263e-017
LeftArm  -21.4927 18.9886 -76.0987
LeftForeArm  36.3145 -5.35633 -0.923523
LeftHand  -0.463713 0.789277 11.7075
RightShoulder  -4.96962e-017 0 -2.36833e-017
RightArm  -3.83634 -12.5791 74.0519
RightForeArm  60.496 17.6414 0.968472
RightHand  -0.526009 3.2336 -7.31365
LeftUpLeg  -7.80482 8.00944 5.65966
LeftLeg  27.5975 10.1885 4.48124
LeftFoot  -1.73129 -0.00534852 -0.192455
LeftToes  -32.5509 2.40056e-006 -7.68412e-008
598
root  -43.8118 34.1691 10.5864 -57.1967 88.6375 -56.5939
RightUpLeg  -7.4701 -11.5292 -6.02052
RightLeg  21.5972 0.699881 0.223214
RightFoot  -0.131041 -0.00775965 0.185311
RightToes  -29.1876 -0.138366 -0.24233
Spine  -0.354329 0.359527 1.42709
Spine1  -0.775343 0.949975 3.32983
HEad  -79.6461 4.73668 9.87907
LeftShoulder1  -1.94126e-019 -3.10601e-018 -2.51263e-017
LeftArm  -20.248 18.0569 -76.7743
LeftForeArm  34.459 -9.50425 -1.66658
LeftHand  -0.451064 0.73961 11.27
RightShoulder  -4.96962e-017 0 -2.36833e-017
RightArm  -6.4218 -13.7481 72.1644
RightForeArm  59.1723 16.4673 0.934439
RightHand  -0.477703 2.4787 -7.24936
LeftUpLeg  -7.67314 7.93606 6.2212
LeftLeg  26.9994 10.7913 4.60999
LeftFoot  -1.35513 -0.00364795 -0.146933
LeftToes  -32.2315 2.40056e-006 -7.68412e-008
599
root  -43.8308 34.1603 10.6874 -57.8457 88.2591 -57.0101
RightUpLeg  -7.11872 -9.55764 -5.31795
RightLeg  21.2189 -0.982439 -0.313137
RightFoot  -0.113826 -0.0121409 0.19037
RightToes  -28.9764 -0.136936 -0.239225
Spine  -0.302681 0.192046 1.63548
Spine1  -0.676293 0.6283 3.67586
HEad  -78.0535 6.03308 10.2296
LeftShoulder1  -1.94126e-019 -3.10601e-018 -2.51263e-017
LeftArm  -18.5536 17.4349 -77.1562
LeftForeArm  31.679 -15.4606 -2.7615
LeftHand  -0.445396 0.274392 10.1565
RightShoulder  -4.96962e-017 0 -2.36833e-017
RightArm  -10.3152 -14.055 70.8572
RightForeArm  58.2818 15.1581 1.06639
RightHand  -0.443885 1.51905 -7.61078
LeftUpLeg  -7.5265 6.91554 6.54388
LeftLeg  27.2989 11.8252 5.11621
LeftFoot  -1.54272 -0.00527698 -0.230409
LeftToes  -31.7025 2.40056e-006 -7.68412e-008
600
root  -43.8807 34.1127 10.7327 -52.5541 88.142 -51.2868
RightUpLeg  -7.14951 -7.56867 -5.03854
RightLeg  21.9231 -2.61245 -0.863516
RightFoot  -0.580086 -0.0176388 0.218053
RightToes  -28.2004 -0.131727 -0.23519
Spine  0.0183313 0.049734 1.68574
Spine1  -0.0462918 0.340463 3.70029
HEad  -77.4901 7.36582 10.8595
LeftShoulder1  -1.94126e-019 -3.10601e-018 -2.51263e-017
LeftArm  -15.2269 16.52 -77.3406
LeftForeArm  28.3459 -21.3746 -3.67297
LeftHand  -0.433209 -0.0646343 9.29444
RightShoulder  -4.96962e-017 0 -2.36833e-017
RightArm  -15.262 -13.9577 69.9106
RightForeArm  58.0089 13.8488 1.25479
RightHand  -0.421237 0.455318 -8.44759
LeftUpLeg  -7.42443 5.89877 6.44632
LeftLeg  27.9993 12.8683 5.74279
LeftFoot  -1.8184 -0.00807371 -0.347199
LeftToes  -31.1568 2.40056e-006 -7.68412e-008
